<svg xmlns="http://www.w3.org/2000/svg">
    <symbol id="icon-header-logo" viewBox="0 0 137 22" fill="none"
        xmlns="http://www.w3.org/2000/svg">
        <path
            d="M119.711 3.99801H124.151V8.12601L123.983 8.70201V12.254L124.151 13.31V21.638H119.711V3.99801ZM122.687 10.838C122.927 9.36601 123.383 8.09401 124.055 7.02201C124.727 5.95001 125.575 5.11801 126.599 4.52601C127.639 3.91801 128.791 3.61401 130.055 3.61401C131.399 3.61401 132.575 3.91801 133.583 4.52601C134.607 5.13401 135.407 5.98201 135.983 7.07001C136.559 8.14201 136.847 9.39801 136.847 10.838C136.847 12.278 136.559 13.542 135.983 14.63C135.407 15.702 134.607 16.542 133.583 17.15C132.575 17.758 131.399 18.062 130.055 18.062C128.775 18.062 127.623 17.766 126.599 17.174C125.591 16.566 124.751 15.726 124.079 14.654C123.407 13.566 122.943 12.294 122.687 10.838ZM132.335 10.838C132.335 10.102 132.183 9.45401 131.879 8.89401C131.575 8.31801 131.151 7.87001 130.607 7.55001C130.079 7.21401 129.471 7.04601 128.783 7.04601C128.079 7.04601 127.407 7.21401 126.767 7.55001C126.127 7.87001 125.567 8.31801 125.087 8.89401C124.623 9.45401 124.263 10.102 124.007 10.838C124.263 11.574 124.623 12.23 125.087 12.806C125.567 13.366 126.127 13.814 126.767 14.15C127.407 14.47 128.079 14.63 128.783 14.63C129.471 14.63 130.079 14.47 130.607 14.15C131.151 13.814 131.575 13.366 131.879 12.806C132.183 12.23 132.335 11.574 132.335 10.838Z"
            fill="#1C1C1C" />
        <path
            d="M100.328 3.99801H104.768V8.12601L104.6 8.70201V12.254L104.768 13.31V21.638H100.328V3.99801ZM103.304 10.838C103.544 9.36601 104 8.09401 104.672 7.02201C105.344 5.95001 106.192 5.11801 107.216 4.52601C108.256 3.91801 109.408 3.61401 110.672 3.61401C112.016 3.61401 113.192 3.91801 114.2 4.52601C115.224 5.13401 116.024 5.98201 116.6 7.07001C117.176 8.14201 117.464 9.39801 117.464 10.838C117.464 12.278 117.176 13.542 116.6 14.63C116.024 15.702 115.224 16.542 114.2 17.15C113.192 17.758 112.016 18.062 110.672 18.062C109.392 18.062 108.24 17.766 107.216 17.174C106.208 16.566 105.368 15.726 104.696 14.654C104.024 13.566 103.56 12.294 103.304 10.838ZM112.952 10.838C112.952 10.102 112.8 9.45401 112.496 8.89401C112.192 8.31801 111.768 7.87001 111.224 7.55001C110.696 7.21401 110.088 7.04601 109.4 7.04601C108.696 7.04601 108.024 7.21401 107.384 7.55001C106.744 7.87001 106.184 8.31801 105.704 8.89401C105.24 9.45401 104.88 10.102 104.624 10.838C104.88 11.574 105.24 12.23 105.704 12.806C106.184 13.366 106.744 13.814 107.384 14.15C108.024 14.47 108.696 14.63 109.4 14.63C110.088 14.63 110.696 14.47 111.224 14.15C111.768 13.814 112.192 13.366 112.496 12.806C112.8 12.23 112.952 11.574 112.952 10.838Z"
            fill="#1C1C1C" />
        <path
            d="M93.1659 17.678L92.5659 12.71L93.2139 10.838L92.5659 8.99001L93.1659 3.99801H97.7979L96.9579 10.838L97.7979 17.678H93.1659ZM94.2699 10.838C94.0299 12.294 93.5739 13.566 92.9019 14.654C92.2299 15.726 91.3819 16.566 90.3579 17.174C89.3339 17.766 88.1819 18.062 86.9019 18.062C85.5579 18.062 84.3739 17.758 83.3499 17.15C82.3419 16.542 81.5499 15.702 80.9739 14.63C80.3979 13.542 80.1099 12.278 80.1099 10.838C80.1099 9.39801 80.3979 8.14201 80.9739 7.07001C81.5499 5.98201 82.3419 5.13401 83.3499 4.52601C84.3739 3.91801 85.5579 3.61401 86.9019 3.61401C88.1819 3.61401 89.3339 3.91801 90.3579 4.52601C91.3819 5.11801 92.2299 5.95001 92.9019 7.02201C93.5899 8.09401 94.0459 9.36601 94.2699 10.838ZM84.6219 10.838C84.6219 11.574 84.7739 12.23 85.0779 12.806C85.3819 13.366 85.7979 13.814 86.3259 14.15C86.8699 14.47 87.4939 14.63 88.1979 14.63C88.9019 14.63 89.5659 14.47 90.1899 14.15C90.8299 13.814 91.3899 13.366 91.8699 12.806C92.3499 12.23 92.7099 11.574 92.9499 10.838C92.7099 10.102 92.3499 9.45401 91.8699 8.89401C91.3899 8.31801 90.8299 7.87001 90.1899 7.55001C89.5659 7.21401 88.9019 7.04601 88.1979 7.04601C87.4939 7.04601 86.8699 7.21401 86.3259 7.55001C85.7979 7.87001 85.3819 8.31801 85.0779 8.89401C84.7739 9.45401 84.6219 10.102 84.6219 10.838Z"
            fill="#1C1C1C" />
        <path
            d="M69.8582 18.062C68.1302 18.062 66.6182 17.758 65.3222 17.15C64.0262 16.542 63.0182 15.694 62.2982 14.606C61.5782 13.518 61.2182 12.262 61.2182 10.838C61.2182 9.39801 61.5782 8.14201 62.2982 7.07001C63.0182 5.98201 64.0262 5.13401 65.3222 4.52601C66.6342 3.91801 68.1462 3.61401 69.8582 3.61401C71.5862 3.61401 73.0982 3.91801 74.3942 4.52601C75.7062 5.13401 76.7222 5.98201 77.4422 7.07001C78.1622 8.14201 78.5222 9.39801 78.5222 10.838C78.5222 12.278 78.1622 13.542 77.4422 14.63C76.7222 15.702 75.7062 16.542 74.3942 17.15C73.0982 17.758 71.5862 18.062 69.8582 18.062ZM69.8582 14.702C70.7382 14.702 71.4822 14.55 72.0902 14.246C72.7142 13.926 73.1862 13.478 73.5062 12.902C73.8422 12.326 74.0102 11.638 74.0102 10.838C74.0102 10.038 73.8422 9.35001 73.5062 8.77401C73.1862 8.19801 72.7142 7.75801 72.0902 7.45401C71.4822 7.13401 70.7382 6.97401 69.8582 6.97401C69.0102 6.97401 68.2742 7.13401 67.6502 7.45401C67.0262 7.75801 66.5462 8.19801 66.2102 8.77401C65.8742 9.35001 65.7062 10.038 65.7062 10.838C65.7062 11.638 65.8742 12.326 66.2102 12.902C66.5462 13.478 67.0262 13.926 67.6502 14.246C68.2742 14.55 69.0102 14.702 69.8582 14.702Z"
            fill="#1C1C1C" />
        <path
            d="M46.8358 7.31001V5.36601L49.6678 4.33401L51.5878 0.350006H54.1318V3.99801H60.0358V7.31001H54.1318V11.822C54.1318 12.846 54.3398 13.566 54.7558 13.982C55.1718 14.382 55.9158 14.582 56.9878 14.582C57.6758 14.582 58.2758 14.526 58.7878 14.414C59.3158 14.286 59.8118 14.118 60.2758 13.91V17.294C59.7958 17.486 59.1638 17.662 58.3798 17.822C57.6118 17.982 56.8118 18.062 55.9798 18.062C54.5238 18.062 53.3238 17.83 52.3798 17.366C51.4518 16.902 50.7638 16.254 50.3158 15.422C49.8838 14.574 49.6678 13.582 49.6678 12.446V7.31001H46.8358Z"
            fill="#1C1C1C" />
        <path
            d="M46.1263 13.286C46.1263 14.31 45.8223 15.182 45.2143 15.902C44.6223 16.606 43.7503 17.142 42.5983 17.51C41.4463 17.878 40.0463 18.062 38.3983 18.062C36.7183 18.062 35.2463 17.854 33.9823 17.438C32.7183 17.022 31.7343 16.438 31.0303 15.686C30.3263 14.934 29.9503 14.062 29.9023 13.07H34.4383C34.5343 13.47 34.7583 13.822 35.1103 14.126C35.4783 14.43 35.9503 14.662 36.5263 14.822C37.1023 14.966 37.7823 15.038 38.5663 15.038C39.6223 15.038 40.4223 14.926 40.9663 14.702C41.5103 14.478 41.7823 14.142 41.7823 13.694C41.7823 13.358 41.5823 13.102 41.1823 12.926C40.7983 12.75 40.1023 12.622 39.0943 12.542L36.5983 12.35C35.0303 12.238 33.7823 11.99 32.8543 11.606C31.9263 11.222 31.2623 10.734 30.8623 10.142C30.4783 9.55002 30.2863 8.88601 30.2863 8.15001C30.2863 7.14201 30.5983 6.30201 31.2223 5.63001C31.8623 4.95801 32.7423 4.45401 33.8623 4.11802C34.9823 3.78201 36.2943 3.61401 37.7983 3.61401C39.3023 3.61401 40.6383 3.81401 41.8063 4.21401C42.9903 4.61401 43.9343 5.16601 44.6383 5.87001C45.3583 6.57401 45.7663 7.39801 45.8623 8.34201H41.3263C41.2623 8.02201 41.0863 7.72601 40.7983 7.45401C40.5263 7.18201 40.1263 6.96601 39.5983 6.80602C39.0863 6.63001 38.4143 6.54201 37.5823 6.54201C36.6383 6.54201 35.9183 6.64601 35.4223 6.85401C34.9263 7.06201 34.6783 7.36601 34.6783 7.76601C34.6783 8.07001 34.8303 8.31001 35.1343 8.48601C35.4383 8.66201 36.0143 8.79001 36.8623 8.87001L40.1023 9.11001C41.6383 9.23801 42.8383 9.48602 43.7023 9.85402C44.5823 10.206 45.2063 10.67 45.5743 11.246C45.9423 11.822 46.1263 12.502 46.1263 13.286Z"
            fill="#1C1C1C" />
        <path
            d="M21.1054 18.062C19.4734 18.062 18.0094 17.758 16.7134 17.15C15.4334 16.542 14.4254 15.694 13.6894 14.606C12.9534 13.518 12.5854 12.246 12.5854 10.79C12.5854 9.36601 12.9374 8.11801 13.6414 7.04601C14.3454 5.97401 15.3134 5.13401 16.5454 4.52601C17.7934 3.91801 19.2014 3.61401 20.7694 3.61401C22.3694 3.61401 23.7454 3.96601 24.8974 4.67001C26.0494 5.37401 26.9374 6.36601 27.5614 7.64601C28.1854 8.92601 28.4974 10.43 28.4974 12.158H16.1614V9.35001H26.0494L24.4414 10.358C24.3934 9.60601 24.2094 8.97401 23.8894 8.46202C23.5854 7.93401 23.1774 7.53401 22.6654 7.26201C22.1534 6.97401 21.5454 6.83001 20.8414 6.83001C20.0734 6.83001 19.4094 6.98201 18.8494 7.28601C18.2894 7.59001 17.8494 8.01401 17.5294 8.55801C17.2254 9.10201 17.0734 9.73401 17.0734 10.454C17.0734 11.366 17.2734 12.142 17.6734 12.782C18.0894 13.422 18.6814 13.91 19.4494 14.246C20.2334 14.582 21.1854 14.75 22.3054 14.75C23.3294 14.75 24.3534 14.614 25.3774 14.342C26.4014 14.054 27.3214 13.654 28.1374 13.142V16.046C27.2094 16.686 26.1454 17.182 24.9454 17.534C23.7614 17.886 22.4814 18.062 21.1054 18.062Z"
            fill="#1C1C1C" />
        <path
            d="M0 3.99801H4.512L5.328 8.91801V17.678H0.864V8.55801L0 3.99801ZM11.856 3.80602V7.64601C11.424 7.55001 10.992 7.47801 10.56 7.43001C10.144 7.38201 9.76 7.35802 9.408 7.35802C8.64 7.35802 7.944 7.51801 7.32 7.83801C6.712 8.14201 6.224 8.63001 5.856 9.30201C5.504 9.97401 5.328 10.846 5.328 11.918L4.44 10.814C4.552 9.83801 4.736 8.91801 4.992 8.05401C5.248 7.19001 5.6 6.43001 6.048 5.77401C6.496 5.10201 7.048 4.57401 7.704 4.19001C8.376 3.80601 9.184 3.61401 10.128 3.61401C10.4 3.61401 10.688 3.63001 10.992 3.66201C11.296 3.69401 11.584 3.74201 11.856 3.80602Z"
            fill="#1C1C1C" />
    </symbol>
    <symbol id="icon-close" viewBox="0 0 24 24" fill="none" xmlns="http://www.w3.org/2000/svg">
        <path
            d="M22 12C22 17.5228 17.5228 22 12 22C6.47715 22 2 17.5228 2 12C2 6.47715 6.47715 2 12 2C17.5228 2 22 6.47715 22 12Z"
            fill="#393939" />
        <path
            d="M14.2982 15.3587C14.5911 15.6516 15.0659 15.6516 15.3588 15.3587C15.6517 15.0658 15.6517 14.5909 15.3588 14.298L13.0608 12L15.3588 9.70197C15.6517 9.40908 15.6517 8.9342 15.3588 8.64131C15.0659 8.34842 14.591 8.34842 14.2982 8.64131L12.0001 10.9393L9.70198 8.64118C9.40908 8.34829 8.93421 8.34829 8.64132 8.64118C8.34842 8.93407 8.34842 9.40895 8.64132 9.70184L10.9395 12L8.6413 14.2982C8.34841 14.5911 8.34841 15.0659 8.6413 15.3588C8.93419 15.6517 9.40907 15.6517 9.70196 15.3588L12.0001 13.0607L14.2982 15.3587Z"
            fill="white" />
    </symbol>
    <symbol id="icon-user" viewBox="0 0 24 24" fill="none" xmlns="http://www.w3.org/2000/svg">
        <path fill-rule="evenodd" clip-rule="evenodd"
            d="M12 3.84999C10.2603 3.84999 8.85002 5.2603 8.85002 6.99999C8.85002 8.73969 10.2603 10.15 12 10.15C13.7397 10.15 15.15 8.73969 15.15 6.99999C15.15 5.2603 13.7397 3.84999 12 3.84999ZM7.15002 6.99999C7.15002 4.32141 9.32144 2.14999 12 2.14999C14.6786 2.14999 16.85 4.32141 16.85 6.99999C16.85 9.67858 14.6786 11.85 12 11.85C9.32144 11.85 7.15002 9.67858 7.15002 6.99999ZM7.43041 15.7854C6.25402 16.3736 5.85002 17.0289 5.85002 17.5C5.85002 17.9711 6.25402 18.6264 7.43041 19.2146C8.55596 19.7774 10.1704 20.15 12 20.15C13.8297 20.15 15.4441 19.7774 16.5696 19.2146C17.746 18.6264 18.15 17.9711 18.15 17.5C18.15 17.0289 17.746 16.3736 16.5696 15.7854C15.4441 15.2226 13.8297 14.85 12 14.85C10.1704 14.85 8.55596 15.2226 7.43041 15.7854ZM6.67015 14.2649C8.0781 13.5609 9.96368 13.15 12 13.15C14.0364 13.15 15.922 13.5609 17.3299 14.2649C18.687 14.9434 19.85 16.0381 19.85 17.5C19.85 18.9619 18.687 20.0566 17.3299 20.7351C15.922 21.4391 14.0364 21.85 12 21.85C9.96368 21.85 8.0781 21.4391 6.67015 20.7351C5.31304 20.0566 4.15002 18.9619 4.15002 17.5C4.15002 16.0381 5.31304 14.9434 6.67015 14.2649Z"
            fill="currentColor" />
    </symbol>
    <symbol id="icon-basket" viewBox="0 0 24 24" fill="none" xmlns="http://www.w3.org/2000/svg">
        <path
            d="M20.0343 6.05767C19.8234 5.80451 19.5593 5.6009 19.2607 5.4613C18.9622 5.3217 18.6367 5.24954 18.3071 5.24994H6.18142L6.14992 4.9867C6.08546 4.43953 5.82247 3.93503 5.41081 3.56884C4.99915 3.20266 4.46743 3.00026 3.91648 3L3.74998 3C3.55107 3 3.36031 3.07902 3.21966 3.21966C3.07902 3.36031 3 3.55107 3 3.74998C3 3.94889 3.07902 4.13965 3.21966 4.2803C3.36031 4.42095 3.55107 4.49996 3.74998 4.49996H3.91648C4.10017 4.49999 4.27747 4.56743 4.41474 4.68949C4.55202 4.81156 4.63972 4.97976 4.66121 5.1622L5.69318 13.937C5.80032 14.8495 6.23878 15.691 6.92533 16.3017C7.61189 16.9123 8.49875 17.2497 9.41759 17.2496H17.2496C17.4485 17.2496 17.6393 17.1706 17.78 17.03C17.9206 16.8893 17.9996 16.6986 17.9996 16.4997C17.9996 16.3008 17.9206 16.11 17.78 15.9693C17.6393 15.8287 17.4485 15.7497 17.2496 15.7497H9.41759C8.95339 15.7484 8.50096 15.6035 8.12232 15.335C7.74368 15.0664 7.45737 14.6874 7.30264 14.2497H16.2424C17.1216 14.2498 17.9729 13.9409 18.6475 13.3771C19.3221 12.8132 19.7771 12.0303 19.9331 11.165L20.5218 7.89963C20.5806 7.57564 20.5674 7.24269 20.4831 6.92438C20.3989 6.60607 20.2457 6.31017 20.0343 6.05767ZM19.0496 7.63338L18.4601 10.8988C18.3665 11.4185 18.093 11.8888 17.6875 12.2272C17.2821 12.5656 16.7705 12.7506 16.2424 12.7498H7.06415L6.35842 6.74991H18.3071C18.4173 6.74925 18.5263 6.77287 18.6263 6.8191C18.7263 6.86532 18.8149 6.93301 18.8857 7.01735C18.9566 7.1017 19.0081 7.20062 19.0364 7.30709C19.0647 7.41357 19.0692 7.52497 19.0496 7.63338Z"
            fill="currentColor" />
        <path
            d="M8.24996 21C9.07836 21 9.74992 20.3284 9.74992 19.5C9.74992 18.6716 9.07836 18.0001 8.24996 18.0001C7.42155 18.0001 6.75 18.6716 6.75 19.5C6.75 20.3284 7.42155 21 8.24996 21Z"
            fill="currentColor" />
        <path
            d="M15.7497 21C16.5781 21 17.2496 20.3284 17.2496 19.5C17.2496 18.6716 16.5781 18.0001 15.7497 18.0001C14.9212 18.0001 14.2497 18.6716 14.2497 19.5C14.2497 20.3284 14.9212 21 15.7497 21Z"
            fill="currentColor" />
    </symbol>
    <symbol id="icon-vegetarian" viewBox="0 0 36 36" fill="none" xmlns="http://www.w3.org/2000/svg">
        <path
            d="M0 8C0 3.58172 3.58172 0 8 0H28C32.4183 0 36 3.58172 36 8V28C36 32.4183 32.4183 36 28 36H8C3.58172 36 0 32.4183 0 28V8Z"
            fill="#1DAA0F" />
        <path
            d="M26 11C26 14.55 23.3562 17.4844 19.9312 17.9375C19.7094 16.2688 18.975 14.7625 17.8906 13.5844C19.0875 11.4469 21.375 10 24 10H25C25.5531 10 26 10.4469 26 11ZM10 13C10 12.4469 10.4469 12 11 12H12C15.8656 12 19 15.1344 19 19V20V25C19 25.5531 18.5531 26 18 26C17.4469 26 17 25.5531 17 25V20C13.1344 20 10 16.8656 10 13Z"
            fill="white" />
    </symbol>
    <symbol id="icon-sharp" viewBox="0 0 36 36" fill="none" xmlns="http://www.w3.org/2000/svg">
        <path
            d="M0 8C0 3.58172 3.58172 0 8 0H28C32.4183 0 36 3.58172 36 8V28C36 32.4183 32.4183 36 28 36H8C3.58172 36 0 32.4183 0 28V8Z"
            fill="#FC7D04" />
        <path
            d="M20.3337 18.2222V15.4183L18.6852 14.6614C16.8576 16.8359 16.1744 22.4999 11.7499 22.4999C11.2857 22.4999 10.8406 22.6842 10.5124 23.0124C10.1842 23.3406 9.99982 23.7858 9.99982 24.2499C9.99982 24.7141 10.1842 25.1592 10.5124 25.4874C10.8406 25.8156 11.2857 26 11.7499 26C18.3952 26 23.3332 22.1602 24.8498 19.4266L23.6919 18.2222H20.3337ZM24.4304 14.2104C25.4355 12.3404 24.9123 10.8269 24.3323 10.0931C24.3102 10.0656 24.2825 10.0432 24.2511 10.0272C24.2197 10.0112 24.1852 10.002 24.15 10.0003C24.1148 9.99856 24.0796 10.0043 24.0468 10.0171C24.0139 10.0299 23.9842 10.0495 23.9595 10.0747L23.2438 10.7934C23.2027 10.8352 23.1775 10.8899 23.1724 10.9483C23.1673 11.0066 23.1827 11.0649 23.216 11.1131C23.4304 11.4369 23.7488 12.2101 23.1722 13.3732C22.6089 13.127 22.0007 12.9997 21.3859 12.9995C20.5109 12.9995 19.6983 13.2663 19.0002 13.7054L21.3337 14.777V17.2221H24.1179L25.8267 18.9997C25.9286 18.6053 26.0005 18.1987 26.0005 17.7712C26.0011 17.1011 25.8618 16.4382 25.5914 15.8251C25.321 15.2119 24.9256 14.662 24.4304 14.2104Z"
            fill="white" />
    </symbol>
    <symbol id="icon-seafood" viewBox="0 0 36 36" fill="none" xmlns="http://www.w3.org/2000/svg">
        <path
            d="M0 8C0 3.58172 3.58172 0 8 0H28C32.4183 0 36 3.58172 36 8V28C36 32.4183 32.4183 36 28 36H8C3.58172 36 0 32.4183 0 28V8Z"
            fill="#0094E4" />
        <path
            d="M17.3283 13.5118C15.4869 13.6502 13.71 14.2505 12.1619 15.2572C12.3643 14.4506 12.793 13.7185 13.3976 13.1474C14.0021 12.5762 14.7573 12.1897 15.5742 12.0334C15.7903 11.99 16.0135 11.9958 16.2271 12.0505C16.4407 12.1053 16.6392 12.2075 16.8078 12.3496C16.9764 12.4917 17.1107 12.67 17.2009 12.8712C17.291 13.0724 17.3346 13.2914 17.3283 13.5118ZM25.7585 13.4964C25.5165 13.1654 25.2096 12.8871 24.8565 12.6786C24.5033 12.4702 24.1114 12.3359 23.7046 12.2839C23.6527 11.8772 23.5184 11.4852 23.3099 11.1321C23.1014 10.7789 22.8232 10.472 22.4921 10.23C22.3223 10.1022 22.1203 10.0243 21.9087 10.0048C21.6971 9.98535 21.4842 10.0252 21.294 10.1199C21.1037 10.2145 20.9436 10.3603 20.8315 10.5408C20.7194 10.7214 20.6598 10.9296 20.6594 11.1421V14.663C15.6515 14.663 12.7941 15.6203 11.3078 18.1233C12.885 18.5353 14.3238 19.3605 15.4758 20.5139C16.6277 21.6673 17.4512 23.107 17.8613 24.6847C20.3669 23.1991 21.3256 20.3411 21.3256 15.3292L24.8465 15.3292C25.059 15.3287 25.2672 15.2691 25.4477 15.157C25.6282 15.0449 25.774 14.8848 25.8687 14.6946C25.9633 14.5043 26.0032 14.2915 25.9837 14.0799C25.9643 13.8682 25.8863 13.6662 25.7585 13.4964ZM22.7912 18.6602H22.4748C22.3743 19.5629 22.193 20.4548 21.9332 21.3251H22.4755C24.1323 21.3764 24.6646 18.7428 22.7912 18.6602ZM16.6295 25.263C15.0306 25.7214 12.2745 26.6907 10.7802 25.2084C10.5118 24.9408 10.3039 24.6189 10.1703 24.2643C10.0368 23.9097 9.98077 23.5306 10.006 23.1525C10.0678 21.8593 10.3102 20.5811 10.7262 19.3551C12.1684 19.6802 13.4888 20.4079 14.5338 21.4538C15.5788 22.4996 16.3055 23.8205 16.6295 25.263ZM13.3311 23.3237C13.3311 23.147 13.2609 22.9775 13.1359 22.8526C13.011 22.7277 12.8415 22.6575 12.6649 22.6575C12.4882 22.6575 12.3187 22.7277 12.1938 22.8526C12.0688 22.9775 11.9986 23.147 11.9986 23.3237C11.9986 23.5004 12.0688 23.6698 12.1938 23.7948C12.3187 23.9197 12.4882 23.9899 12.6649 23.9899C12.8415 23.9899 13.011 23.9197 13.1359 23.7948C13.2609 23.6698 13.3311 23.5004 13.3311 23.3237Z"
            fill="white" />
    </symbol>
</svg>