<svg xmlns="http://www.w3.org/2000/svg">
    <symbol id="icon-header-logo" viewBox="0 0 137 22" fill="none"
        xmlns="http://www.w3.org/2000/svg">
        <path
            d="M119.711 3.99801H124.151V8.12601L123.983 8.70201V12.254L124.151 13.31V21.638H119.711V3.99801ZM122.687 10.838C122.927 9.36601 123.383 8.09401 124.055 7.02201C124.727 5.95001 125.575 5.11801 126.599 4.52601C127.639 3.91801 128.791 3.61401 130.055 3.61401C131.399 3.61401 132.575 3.91801 133.583 4.52601C134.607 5.13401 135.407 5.98201 135.983 7.07001C136.559 8.14201 136.847 9.39801 136.847 10.838C136.847 12.278 136.559 13.542 135.983 14.63C135.407 15.702 134.607 16.542 133.583 17.15C132.575 17.758 131.399 18.062 130.055 18.062C128.775 18.062 127.623 17.766 126.599 17.174C125.591 16.566 124.751 15.726 124.079 14.654C123.407 13.566 122.943 12.294 122.687 10.838ZM132.335 10.838C132.335 10.102 132.183 9.45401 131.879 8.89401C131.575 8.31801 131.151 7.87001 130.607 7.55001C130.079 7.21401 129.471 7.04601 128.783 7.04601C128.079 7.04601 127.407 7.21401 126.767 7.55001C126.127 7.87001 125.567 8.31801 125.087 8.89401C124.623 9.45401 124.263 10.102 124.007 10.838C124.263 11.574 124.623 12.23 125.087 12.806C125.567 13.366 126.127 13.814 126.767 14.15C127.407 14.47 128.079 14.63 128.783 14.63C129.471 14.63 130.079 14.47 130.607 14.15C131.151 13.814 131.575 13.366 131.879 12.806C132.183 12.23 132.335 11.574 132.335 10.838Z"
            fill="#1C1C1C" />
        <path
            d="M100.328 3.99801H104.768V8.12601L104.6 8.70201V12.254L104.768 13.31V21.638H100.328V3.99801ZM103.304 10.838C103.544 9.36601 104 8.09401 104.672 7.02201C105.344 5.95001 106.192 5.11801 107.216 4.52601C108.256 3.91801 109.408 3.61401 110.672 3.61401C112.016 3.61401 113.192 3.91801 114.2 4.52601C115.224 5.13401 116.024 5.98201 116.6 7.07001C117.176 8.14201 117.464 9.39801 117.464 10.838C117.464 12.278 117.176 13.542 116.6 14.63C116.024 15.702 115.224 16.542 114.2 17.15C113.192 17.758 112.016 18.062 110.672 18.062C109.392 18.062 108.24 17.766 107.216 17.174C106.208 16.566 105.368 15.726 104.696 14.654C104.024 13.566 103.56 12.294 103.304 10.838ZM112.952 10.838C112.952 10.102 112.8 9.45401 112.496 8.89401C112.192 8.31801 111.768 7.87001 111.224 7.55001C110.696 7.21401 110.088 7.04601 109.4 7.04601C108.696 7.04601 108.024 7.21401 107.384 7.55001C106.744 7.87001 106.184 8.31801 105.704 8.89401C105.24 9.45401 104.88 10.102 104.624 10.838C104.88 11.574 105.24 12.23 105.704 12.806C106.184 13.366 106.744 13.814 107.384 14.15C108.024 14.47 108.696 14.63 109.4 14.63C110.088 14.63 110.696 14.47 111.224 14.15C111.768 13.814 112.192 13.366 112.496 12.806C112.8 12.23 112.952 11.574 112.952 10.838Z"
            fill="#1C1C1C" />
        <path
            d="M93.1659 17.678L92.5659 12.71L93.2139 10.838L92.5659 8.99001L93.1659 3.99801H97.7979L96.9579 10.838L97.7979 17.678H93.1659ZM94.2699 10.838C94.0299 12.294 93.5739 13.566 92.9019 14.654C92.2299 15.726 91.3819 16.566 90.3579 17.174C89.3339 17.766 88.1819 18.062 86.9019 18.062C85.5579 18.062 84.3739 17.758 83.3499 17.15C82.3419 16.542 81.5499 15.702 80.9739 14.63C80.3979 13.542 80.1099 12.278 80.1099 10.838C80.1099 9.39801 80.3979 8.14201 80.9739 7.07001C81.5499 5.98201 82.3419 5.13401 83.3499 4.52601C84.3739 3.91801 85.5579 3.61401 86.9019 3.61401C88.1819 3.61401 89.3339 3.91801 90.3579 4.52601C91.3819 5.11801 92.2299 5.95001 92.9019 7.02201C93.5899 8.09401 94.0459 9.36601 94.2699 10.838ZM84.6219 10.838C84.6219 11.574 84.7739 12.23 85.0779 12.806C85.3819 13.366 85.7979 13.814 86.3259 14.15C86.8699 14.47 87.4939 14.63 88.1979 14.63C88.9019 14.63 89.5659 14.47 90.1899 14.15C90.8299 13.814 91.3899 13.366 91.8699 12.806C92.3499 12.23 92.7099 11.574 92.9499 10.838C92.7099 10.102 92.3499 9.45401 91.8699 8.89401C91.3899 8.31801 90.8299 7.87001 90.1899 7.55001C89.5659 7.21401 88.9019 7.04601 88.1979 7.04601C87.4939 7.04601 86.8699 7.21401 86.3259 7.55001C85.7979 7.87001 85.3819 8.31801 85.0779 8.89401C84.7739 9.45401 84.6219 10.102 84.6219 10.838Z"
            fill="#1C1C1C" />
        <path
            d="M69.8582 18.062C68.1302 18.062 66.6182 17.758 65.3222 17.15C64.0262 16.542 63.0182 15.694 62.2982 14.606C61.5782 13.518 61.2182 12.262 61.2182 10.838C61.2182 9.39801 61.5782 8.14201 62.2982 7.07001C63.0182 5.98201 64.0262 5.13401 65.3222 4.52601C66.6342 3.91801 68.1462 3.61401 69.8582 3.61401C71.5862 3.61401 73.0982 3.91801 74.3942 4.52601C75.7062 5.13401 76.7222 5.98201 77.4422 7.07001C78.1622 8.14201 78.5222 9.39801 78.5222 10.838C78.5222 12.278 78.1622 13.542 77.4422 14.63C76.7222 15.702 75.7062 16.542 74.3942 17.15C73.0982 17.758 71.5862 18.062 69.8582 18.062ZM69.8582 14.702C70.7382 14.702 71.4822 14.55 72.0902 14.246C72.7142 13.926 73.1862 13.478 73.5062 12.902C73.8422 12.326 74.0102 11.638 74.0102 10.838C74.0102 10.038 73.8422 9.35001 73.5062 8.77401C73.1862 8.19801 72.7142 7.75801 72.0902 7.45401C71.4822 7.13401 70.7382 6.97401 69.8582 6.97401C69.0102 6.97401 68.2742 7.13401 67.6502 7.45401C67.0262 7.75801 66.5462 8.19801 66.2102 8.77401C65.8742 9.35001 65.7062 10.038 65.7062 10.838C65.7062 11.638 65.8742 12.326 66.2102 12.902C66.5462 13.478 67.0262 13.926 67.6502 14.246C68.2742 14.55 69.0102 14.702 69.8582 14.702Z"
            fill="#1C1C1C" />
        <path
            d="M46.8358 7.31001V5.36601L49.6678 4.33401L51.5878 0.350006H54.1318V3.99801H60.0358V7.31001H54.1318V11.822C54.1318 12.846 54.3398 13.566 54.7558 13.982C55.1718 14.382 55.9158 14.582 56.9878 14.582C57.6758 14.582 58.2758 14.526 58.7878 14.414C59.3158 14.286 59.8118 14.118 60.2758 13.91V17.294C59.7958 17.486 59.1638 17.662 58.3798 17.822C57.6118 17.982 56.8118 18.062 55.9798 18.062C54.5238 18.062 53.3238 17.83 52.3798 17.366C51.4518 16.902 50.7638 16.254 50.3158 15.422C49.8838 14.574 49.6678 13.582 49.6678 12.446V7.31001H46.8358Z"
            fill="#1C1C1C" />
        <path
            d="M46.1263 13.286C46.1263 14.31 45.8223 15.182 45.2143 15.902C44.6223 16.606 43.7503 17.142 42.5983 17.51C41.4463 17.878 40.0463 18.062 38.3983 18.062C36.7183 18.062 35.2463 17.854 33.9823 17.438C32.7183 17.022 31.7343 16.438 31.0303 15.686C30.3263 14.934 29.9503 14.062 29.9023 13.07H34.4383C34.5343 13.47 34.7583 13.822 35.1103 14.126C35.4783 14.43 35.9503 14.662 36.5263 14.822C37.1023 14.966 37.7823 15.038 38.5663 15.038C39.6223 15.038 40.4223 14.926 40.9663 14.702C41.5103 14.478 41.7823 14.142 41.7823 13.694C41.7823 13.358 41.5823 13.102 41.1823 12.926C40.7983 12.75 40.1023 12.622 39.0943 12.542L36.5983 12.35C35.0303 12.238 33.7823 11.99 32.8543 11.606C31.9263 11.222 31.2623 10.734 30.8623 10.142C30.4783 9.55002 30.2863 8.88601 30.2863 8.15001C30.2863 7.14201 30.5983 6.30201 31.2223 5.63001C31.8623 4.95801 32.7423 4.45401 33.8623 4.11802C34.9823 3.78201 36.2943 3.61401 37.7983 3.61401C39.3023 3.61401 40.6383 3.81401 41.8063 4.21401C42.9903 4.61401 43.9343 5.16601 44.6383 5.87001C45.3583 6.57401 45.7663 7.39801 45.8623 8.34201H41.3263C41.2623 8.02201 41.0863 7.72601 40.7983 7.45401C40.5263 7.18201 40.1263 6.96601 39.5983 6.80602C39.0863 6.63001 38.4143 6.54201 37.5823 6.54201C36.6383 6.54201 35.9183 6.64601 35.4223 6.85401C34.9263 7.06201 34.6783 7.36601 34.6783 7.76601C34.6783 8.07001 34.8303 8.31001 35.1343 8.48601C35.4383 8.66201 36.0143 8.79001 36.8623 8.87001L40.1023 9.11001C41.6383 9.23801 42.8383 9.48602 43.7023 9.85402C44.5823 10.206 45.2063 10.67 45.5743 11.246C45.9423 11.822 46.1263 12.502 46.1263 13.286Z"
            fill="#1C1C1C" />
        <path
            d="M21.1054 18.062C19.4734 18.062 18.0094 17.758 16.7134 17.15C15.4334 16.542 14.4254 15.694 13.6894 14.606C12.9534 13.518 12.5854 12.246 12.5854 10.79C12.5854 9.36601 12.9374 8.11801 13.6414 7.04601C14.3454 5.97401 15.3134 5.13401 16.5454 4.52601C17.7934 3.91801 19.2014 3.61401 20.7694 3.61401C22.3694 3.61401 23.7454 3.96601 24.8974 4.67001C26.0494 5.37401 26.9374 6.36601 27.5614 7.64601C28.1854 8.92601 28.4974 10.43 28.4974 12.158H16.1614V9.35001H26.0494L24.4414 10.358C24.3934 9.60601 24.2094 8.97401 23.8894 8.46202C23.5854 7.93401 23.1774 7.53401 22.6654 7.26201C22.1534 6.97401 21.5454 6.83001 20.8414 6.83001C20.0734 6.83001 19.4094 6.98201 18.8494 7.28601C18.2894 7.59001 17.8494 8.01401 17.5294 8.55801C17.2254 9.10201 17.0734 9.73401 17.0734 10.454C17.0734 11.366 17.2734 12.142 17.6734 12.782C18.0894 13.422 18.6814 13.91 19.4494 14.246C20.2334 14.582 21.1854 14.75 22.3054 14.75C23.3294 14.75 24.3534 14.614 25.3774 14.342C26.4014 14.054 27.3214 13.654 28.1374 13.142V16.046C27.2094 16.686 26.1454 17.182 24.9454 17.534C23.7614 17.886 22.4814 18.062 21.1054 18.062Z"
            fill="#1C1C1C" />
        <path
            d="M0 3.99801H4.512L5.328 8.91801V17.678H0.864V8.55801L0 3.99801ZM11.856 3.80602V7.64601C11.424 7.55001 10.992 7.47801 10.56 7.43001C10.144 7.38201 9.76 7.35802 9.408 7.35802C8.64 7.35802 7.944 7.51801 7.32 7.83801C6.712 8.14201 6.224 8.63001 5.856 9.30201C5.504 9.97401 5.328 10.846 5.328 11.918L4.44 10.814C4.552 9.83801 4.736 8.91801 4.992 8.05401C5.248 7.19001 5.6 6.43001 6.048 5.77401C6.496 5.10201 7.048 4.57401 7.704 4.19001C8.376 3.80601 9.184 3.61401 10.128 3.61401C10.4 3.61401 10.688 3.63001 10.992 3.66201C11.296 3.69401 11.584 3.74201 11.856 3.80602Z"
            fill="#1C1C1C" />
    </symbol>
    <symbol id="icon-close" viewBox="0 0 24 24" fill="none" xmlns="http://www.w3.org/2000/svg">
        <path
            d="M22 12C22 17.5228 17.5228 22 12 22C6.47715 22 2 17.5228 2 12C2 6.47715 6.47715 2 12 2C17.5228 2 22 6.47715 22 12Z"
            fill="#393939" />
        <path
            d="M14.2982 15.3587C14.5911 15.6516 15.0659 15.6516 15.3588 15.3587C15.6517 15.0658 15.6517 14.5909 15.3588 14.298L13.0608 12L15.3588 9.70197C15.6517 9.40908 15.6517 8.9342 15.3588 8.64131C15.0659 8.34842 14.591 8.34842 14.2982 8.64131L12.0001 10.9393L9.70198 8.64118C9.40908 8.34829 8.93421 8.34829 8.64132 8.64118C8.34842 8.93407 8.34842 9.40895 8.64132 9.70184L10.9395 12L8.6413 14.2982C8.34841 14.5911 8.34841 15.0659 8.6413 15.3588C8.93419 15.6517 9.40907 15.6517 9.70196 15.3588L12.0001 13.0607L14.2982 15.3587Z"
            fill="white" />
    </symbol>
    <symbol id="icon-user" viewBox="0 0 24 24" fill="none" xmlns="http://www.w3.org/2000/svg">
        <path fill-rule="evenodd" clip-rule="evenodd"
            d="M12 3.84999C10.2603 3.84999 8.85002 5.2603 8.85002 6.99999C8.85002 8.73969 10.2603 10.15 12 10.15C13.7397 10.15 15.15 8.73969 15.15 6.99999C15.15 5.2603 13.7397 3.84999 12 3.84999ZM7.15002 6.99999C7.15002 4.32141 9.32144 2.14999 12 2.14999C14.6786 2.14999 16.85 4.32141 16.85 6.99999C16.85 9.67858 14.6786 11.85 12 11.85C9.32144 11.85 7.15002 9.67858 7.15002 6.99999ZM7.43041 15.7854C6.25402 16.3736 5.85002 17.0289 5.85002 17.5C5.85002 17.9711 6.25402 18.6264 7.43041 19.2146C8.55596 19.7774 10.1704 20.15 12 20.15C13.8297 20.15 15.4441 19.7774 16.5696 19.2146C17.746 18.6264 18.15 17.9711 18.15 17.5C18.15 17.0289 17.746 16.3736 16.5696 15.7854C15.4441 15.2226 13.8297 14.85 12 14.85C10.1704 14.85 8.55596 15.2226 7.43041 15.7854ZM6.67015 14.2649C8.0781 13.5609 9.96368 13.15 12 13.15C14.0364 13.15 15.922 13.5609 17.3299 14.2649C18.687 14.9434 19.85 16.0381 19.85 17.5C19.85 18.9619 18.687 20.0566 17.3299 20.7351C15.922 21.4391 14.0364 21.85 12 21.85C9.96368 21.85 8.0781 21.4391 6.67015 20.7351C5.31304 20.0566 4.15002 18.9619 4.15002 17.5C4.15002 16.0381 5.31304 14.9434 6.67015 14.2649Z"
            fill="currentColor" />
    </symbol>
    <symbol id="icon-basket" viewBox="0 0 24 24" fill="none" xmlns="http://www.w3.org/2000/svg">
        <path
            d="M20.0343 6.05767C19.8234 5.80451 19.5593 5.6009 19.2607 5.4613C18.9622 5.3217 18.6367 5.24954 18.3071 5.24994H6.18142L6.14992 4.9867C6.08546 4.43953 5.82247 3.93503 5.41081 3.56884C4.99915 3.20266 4.46743 3.00026 3.91648 3L3.74998 3C3.55107 3 3.36031 3.07902 3.21966 3.21966C3.07902 3.36031 3 3.55107 3 3.74998C3 3.94889 3.07902 4.13965 3.21966 4.2803C3.36031 4.42095 3.55107 4.49996 3.74998 4.49996H3.91648C4.10017 4.49999 4.27747 4.56743 4.41474 4.68949C4.55202 4.81156 4.63972 4.97976 4.66121 5.1622L5.69318 13.937C5.80032 14.8495 6.23878 15.691 6.92533 16.3017C7.61189 16.9123 8.49875 17.2497 9.41759 17.2496H17.2496C17.4485 17.2496 17.6393 17.1706 17.78 17.03C17.9206 16.8893 17.9996 16.6986 17.9996 16.4997C17.9996 16.3008 17.9206 16.11 17.78 15.9693C17.6393 15.8287 17.4485 15.7497 17.2496 15.7497H9.41759C8.95339 15.7484 8.50096 15.6035 8.12232 15.335C7.74368 15.0664 7.45737 14.6874 7.30264 14.2497H16.2424C17.1216 14.2498 17.9729 13.9409 18.6475 13.3771C19.3221 12.8132 19.7771 12.0303 19.9331 11.165L20.5218 7.89963C20.5806 7.57564 20.5674 7.24269 20.4831 6.92438C20.3989 6.60607 20.2457 6.31017 20.0343 6.05767ZM19.0496 7.63338L18.4601 10.8988C18.3665 11.4185 18.093 11.8888 17.6875 12.2272C17.2821 12.5656 16.7705 12.7506 16.2424 12.7498H7.06415L6.35842 6.74991H18.3071C18.4173 6.74925 18.5263 6.77287 18.6263 6.8191C18.7263 6.86532 18.8149 6.93301 18.8857 7.01735C18.9566 7.1017 19.0081 7.20062 19.0364 7.30709C19.0647 7.41357 19.0692 7.52497 19.0496 7.63338Z"
            fill="currentColor" />
        <path
            d="M8.24996 21C9.07836 21 9.74992 20.3284 9.74992 19.5C9.74992 18.6716 9.07836 18.0001 8.24996 18.0001C7.42155 18.0001 6.75 18.6716 6.75 19.5C6.75 20.3284 7.42155 21 8.24996 21Z"
            fill="currentColor" />
        <path
            d="M15.7497 21C16.5781 21 17.2496 20.3284 17.2496 19.5C17.2496 18.6716 16.5781 18.0001 15.7497 18.0001C14.9212 18.0001 14.2497 18.6716 14.2497 19.5C14.2497 20.3284 14.9212 21 15.7497 21Z"
            fill="currentColor" />
    </symbol>
    <symbol id="icon-vegetarian" viewBox="0 0 36 36" fill="none" xmlns="http://www.w3.org/2000/svg">
        <path
            d="M0 8C0 3.58172 3.58172 0 8 0H28C32.4183 0 36 3.58172 36 8V28C36 32.4183 32.4183 36 28 36H8C3.58172 36 0 32.4183 0 28V8Z"
            fill="#1DAA0F" />
        <path
            d="M26 11C26 14.55 23.3562 17.4844 19.9312 17.9375C19.7094 16.2688 18.975 14.7625 17.8906 13.5844C19.0875 11.4469 21.375 10 24 10H25C25.5531 10 26 10.4469 26 11ZM10 13C10 12.4469 10.4469 12 11 12H12C15.8656 12 19 15.1344 19 19V20V25C19 25.5531 18.5531 26 18 26C17.4469 26 17 25.5531 17 25V20C13.1344 20 10 16.8656 10 13Z"
            fill="white" />
    </symbol>
    <symbol id="icon-sharp" viewBox="0 0 36 36" fill="none" xmlns="http://www.w3.org/2000/svg">
        <path
            d="M0 8C0 3.58172 3.58172 0 8 0H28C32.4183 0 36 3.58172 36 8V28C36 32.4183 32.4183 36 28 36H8C3.58172 36 0 32.4183 0 28V8Z"
            fill="#FC7D04" />
        <path
            d="M20.3337 18.2222V15.4183L18.6852 14.6614C16.8576 16.8359 16.1744 22.4999 11.7499 22.4999C11.2857 22.4999 10.8406 22.6842 10.5124 23.0124C10.1842 23.3406 9.99982 23.7858 9.99982 24.2499C9.99982 24.7141 10.1842 25.1592 10.5124 25.4874C10.8406 25.8156 11.2857 26 11.7499 26C18.3952 26 23.3332 22.1602 24.8498 19.4266L23.6919 18.2222H20.3337ZM24.4304 14.2104C25.4355 12.3404 24.9123 10.8269 24.3323 10.0931C24.3102 10.0656 24.2825 10.0432 24.2511 10.0272C24.2197 10.0112 24.1852 10.002 24.15 10.0003C24.1148 9.99856 24.0796 10.0043 24.0468 10.0171C24.0139 10.0299 23.9842 10.0495 23.9595 10.0747L23.2438 10.7934C23.2027 10.8352 23.1775 10.8899 23.1724 10.9483C23.1673 11.0066 23.1827 11.0649 23.216 11.1131C23.4304 11.4369 23.7488 12.2101 23.1722 13.3732C22.6089 13.127 22.0007 12.9997 21.3859 12.9995C20.5109 12.9995 19.6983 13.2663 19.0002 13.7054L21.3337 14.777V17.2221H24.1179L25.8267 18.9997C25.9286 18.6053 26.0005 18.1987 26.0005 17.7712C26.0011 17.1011 25.8618 16.4382 25.5914 15.8251C25.321 15.2119 24.9256 14.662 24.4304 14.2104Z"
            fill="white" />
    </symbol>
    <symbol id="icon-seafood" viewBox="0 0 36 36" fill="none" xmlns="http://www.w3.org/2000/svg">
        <path
            d="M0 8C0 3.58172 3.58172 0 8 0H28C32.4183 0 36 3.58172 36 8V28C36 32.4183 32.4183 36 28 36H8C3.58172 36 0 32.4183 0 28V8Z"
            fill="#0094E4" />
        <path
            d="M17.3283 13.5118C15.4869 13.6502 13.71 14.2505 12.1619 15.2572C12.3643 14.4506 12.793 13.7185 13.3976 13.1474C14.0021 12.5762 14.7573 12.1897 15.5742 12.0334C15.7903 11.99 16.0135 11.9958 16.2271 12.0505C16.4407 12.1053 16.6392 12.2075 16.8078 12.3496C16.9764 12.4917 17.1107 12.67 17.2009 12.8712C17.291 13.0724 17.3346 13.2914 17.3283 13.5118ZM25.7585 13.4964C25.5165 13.1654 25.2096 12.8871 24.8565 12.6786C24.5033 12.4702 24.1114 12.3359 23.7046 12.2839C23.6527 11.8772 23.5184 11.4852 23.3099 11.1321C23.1014 10.7789 22.8232 10.472 22.4921 10.23C22.3223 10.1022 22.1203 10.0243 21.9087 10.0048C21.6971 9.98535 21.4842 10.0252 21.294 10.1199C21.1037 10.2145 20.9436 10.3603 20.8315 10.5408C20.7194 10.7214 20.6598 10.9296 20.6594 11.1421V14.663C15.6515 14.663 12.7941 15.6203 11.3078 18.1233C12.885 18.5353 14.3238 19.3605 15.4758 20.5139C16.6277 21.6673 17.4512 23.107 17.8613 24.6847C20.3669 23.1991 21.3256 20.3411 21.3256 15.3292L24.8465 15.3292C25.059 15.3287 25.2672 15.2691 25.4477 15.157C25.6282 15.0449 25.774 14.8848 25.8687 14.6946C25.9633 14.5043 26.0032 14.2915 25.9837 14.0799C25.9643 13.8682 25.8863 13.6662 25.7585 13.4964ZM22.7912 18.6602H22.4748C22.3743 19.5629 22.193 20.4548 21.9332 21.3251H22.4755C24.1323 21.3764 24.6646 18.7428 22.7912 18.6602ZM16.6295 25.263C15.0306 25.7214 12.2745 26.6907 10.7802 25.2084C10.5118 24.9408 10.3039 24.6189 10.1703 24.2643C10.0368 23.9097 9.98077 23.5306 10.006 23.1525C10.0678 21.8593 10.3102 20.5811 10.7262 19.3551C12.1684 19.6802 13.4888 20.4079 14.5338 21.4538C15.5788 22.4996 16.3055 23.8205 16.6295 25.263ZM13.3311 23.3237C13.3311 23.147 13.2609 22.9775 13.1359 22.8526C13.011 22.7277 12.8415 22.6575 12.6649 22.6575C12.4882 22.6575 12.3187 22.7277 12.1938 22.8526C12.0688 22.9775 11.9986 23.147 11.9986 23.3237C11.9986 23.5004 12.0688 23.6698 12.1938 23.7948C12.3187 23.9197 12.4882 23.9899 12.6649 23.9899C12.8415 23.9899 13.011 23.9197 13.1359 23.7948C13.2609 23.6698 13.3311 23.5004 13.3311 23.3237Z"
            fill="white" />
    </symbol>
    <symbol id="icon-telegram" viewBox="0 0 24 24" fill="none" xmlns="http://www.w3.org/2000/svg">
        <path
            d="M19.4654 4.13242C19.4654 4.13242 21.1306 3.48314 20.9918 5.05998C20.9455 5.70927 20.5293 7.98177 20.2055 10.4398L19.0954 17.7211C19.0954 17.7211 19.0029 18.7878 18.1703 18.9733C17.3377 19.1588 16.0889 18.324 15.8576 18.1385C15.6726 17.9994 12.3886 15.9124 11.2323 14.8921C10.9085 14.6138 10.5384 14.0572 11.2785 13.408L16.1352 8.77022C16.6902 8.21367 17.2453 6.9151 14.9326 8.49195L8.45705 12.8978C8.45705 12.8978 7.71699 13.3616 6.3294 12.9442L3.32289 12.0166C3.32289 12.0166 2.2128 11.321 4.10921 10.6253C8.73459 8.44553 14.4238 6.2194 19.4654 4.13242Z"
            fill="currentColor" />
    </symbol>
    <symbol id="icon-vk" viewBox="0 0 24 24" fill="none" xmlns="http://www.w3.org/2000/svg">
        <path
            d="M14.1106 11.5955C13.7449 11.4579 13.7449 10.9328 13.7222 10.5671C13.6308 9.26442 14.0879 7.27569 13.5394 6.43017C13.151 5.92695 11.2764 5.97303 10.1339 6.04178C9.81352 6.08786 9.42513 6.15588 9.15085 6.29339C8.87657 6.4309 8.60229 6.6591 8.60229 6.86463C8.60229 7.16159 9.28836 7.11624 9.53924 7.50462C9.81352 7.91641 9.81352 8.80728 9.81352 9.5387C9.81352 10.3842 9.67601 11.5048 9.33371 11.5501C8.80782 11.5728 8.51086 11.0469 8.23658 10.6585C7.68801 9.90441 7.13945 8.96673 6.72766 8.05245C6.52213 7.57264 6.4073 7.04675 6.11034 6.84122C5.6532 6.52086 4.83036 6.49819 4.03018 6.52086C3.29876 6.54354 2.24698 6.45211 2.04145 6.88657C1.88127 7.36638 2.22431 7.82352 2.40716 8.21264C3.34411 10.2467 4.34981 12.0299 5.58445 13.721C6.72766 15.2979 7.80138 16.5552 9.90421 17.2179C10.4989 17.4007 13.1042 17.9266 13.6301 17.2179C13.8129 16.9436 13.7676 16.3263 13.859 15.8691C13.9504 15.412 14.0645 14.9549 14.499 14.9322C14.8647 14.9095 15.0702 15.2291 15.2992 15.4581C15.5508 15.7097 15.7563 15.9152 15.9392 16.1441C16.3736 16.5786 16.8308 17.1725 17.3793 17.4015C18.1334 17.7218 19.2993 17.6304 20.3964 17.5843C21.288 17.5616 21.928 17.3788 21.9968 16.8529C22.0429 16.4411 21.585 15.8472 21.3107 15.5042C20.6246 14.6586 20.305 14.407 19.5275 13.6295C19.1845 13.2865 18.75 12.9208 18.75 12.5097C18.7273 12.2581 18.9329 12.0299 19.1157 11.7783C19.9159 10.5897 20.7161 9.74423 21.4475 8.50959C21.653 8.14388 22.1335 7.29836 21.9507 6.88657C21.7452 6.42943 20.602 6.56621 19.8932 6.56621C18.9789 6.56621 17.7904 6.49746 17.5614 6.68031C17.127 6.97727 16.9441 7.45781 16.7386 7.91495C16.2815 8.96673 15.6641 10.0405 15.0241 10.8406C14.7952 11.1149 14.3615 11.6861 14.1099 11.5947L14.1106 11.5955Z"
            fill="currentColor" />
    </symbol>
    <symbol id="icon-watsapp" viewBox="0 0 24 24" fill="none" xmlns="http://www.w3.org/2000/svg">
        <path
            d="M12.375 2C7.1875 2 3 6.1875 3 11.375C3 13.5 3.6875 15.5 5 17.125L3.6875 21.125C3.625 21.375 3.6875 21.625 3.875 21.8125C3.9375 21.9375 4.125 22 4.25 22C4.3125 22 4.4375 22 4.5 21.9375L8.8125 20C9.9375 20.5 11.125 20.75 12.375 20.75C17.5625 20.75 21.75 16.5625 21.75 11.375C21.75 6.1875 17.5625 2 12.375 2ZM17.8125 14.8125C17.5625 15.5625 16.625 16.1875 15.8125 16.3125C15.625 16.375 15.4375 16.375 15.1875 16.375C14.6875 16.375 13.9375 16.25 12.625 15.6875C11.125 15.0625 9.625 13.75 8.4375 12.0625V12C8.0625 11.4375 7.375 10.375 7.375 9.25C7.375 7.875 8.0625 7.1875 8.3125 6.875C8.625 6.5625 9.0625 6.375 9.5625 6.375C9.6875 6.375 9.75 6.375 9.875 6.375C10.3125 6.375 10.625 6.5 10.9375 7.125L11.1875 7.625C11.375 8.125 11.625 8.6875 11.6875 8.75C11.875 9.125 11.875 9.4375 11.6875 9.75C11.625 9.9375 11.5 10.0625 11.375 10.1875C11.3125 10.3125 11.25 10.375 11.1875 10.375C11.125 10.4375 11.125 10.4375 11.0625 10.5C11.25 10.8125 11.625 11.375 12.125 11.8125C12.875 12.5 13.4375 12.6875 13.75 12.8125C13.875 12.6875 14 12.4375 14.1875 12.25L14.25 12.125C14.5625 11.6875 15.0625 11.5625 15.5625 11.75C15.8125 11.875 17.1875 12.5 17.1875 12.5L17.3125 12.5625C17.5 12.6875 17.75 12.75 17.875 13C18.125 13.5625 17.9375 14.375 17.8125 14.8125Z"
            fill="currentColor" />
    </symbol>
    <symbol id="icon-app-store" viewBox="0 0 138 40" fill="none" xmlns="http://www.w3.org/2000/svg">
        <path
            d="M132.889 0.801252C135.255 0.801252 137.181 2.685 137.181 5V35C137.181 37.315 135.255 39.1988 132.889 39.1988H5.11111C2.74467 39.1988 0.819055 37.315 0.819055 35V5C0.819055 2.685 2.74467 0.801252 5.11111 0.801252H132.889ZM132.889 3.8147e-06H5.11111C2.30128 3.8147e-06 0 2.25125 0 5V35C0 37.7488 2.30128 40 5.11111 40H132.889C135.699 40 138 37.7488 138 35V5C138 2.25125 135.699 3.8147e-06 132.889 3.8147e-06Z"
            fill="currentColor" />
        <path
            d="M30.7975 19.784C30.7679 16.561 33.4952 14.993 33.6199 14.92C32.0753 12.717 29.6812 12.416 28.84 12.392C26.8292 12.185 24.8788 13.569 23.8546 13.569C22.8099 13.569 21.2326 12.412 19.5326 12.446C17.3451 12.479 15.2986 13.718 14.1762 15.642C11.8598 19.565 13.5874 25.33 15.8066 28.501C16.9168 30.054 18.214 31.788 19.9119 31.727C21.573 31.66 22.1935 30.691 24.198 30.691C26.1842 30.691 26.7669 31.727 28.4985 31.688C30.2813 31.66 31.4037 30.128 32.475 28.561C33.7579 26.781 34.2731 25.028 34.2935 24.938C34.2516 24.924 30.8312 23.647 30.7975 19.784Z"
            fill="currentColor" />
        <path
            d="M27.5264 10.306C28.4198 9.21304 29.0311 7.72604 28.8614 6.21704C27.5683 6.27304 25.9512 7.09204 25.0199 8.16104C24.196 9.10304 23.46 10.647 23.6501 12.099C25.1027 12.205 26.5941 11.382 27.5264 10.306Z"
            fill="currentColor" />
        <path
            d="M54.8371 31.504H52.5156L51.244 27.595H46.8239L45.6125 31.504H43.3524L47.7316 18.196H50.4364L54.8371 31.504ZM50.8606 25.955L49.7106 22.48C49.589 22.125 49.361 21.289 49.0247 19.973H48.9838C48.8499 20.539 48.6342 21.375 48.3378 22.48L47.2082 25.955H50.8606Z"
            fill="currentColor" />
        <path
            d="M66.0989 26.5879C66.0989 28.2199 65.6481 29.5099 64.7465 30.4569C63.9389 31.2999 62.9361 31.7209 61.7391 31.7209C60.447 31.7209 59.5188 31.2669 58.9535 30.3589H58.9127V35.4139H56.7333V25.0669C56.7333 24.0409 56.7057 22.9879 56.6525 21.9079H58.5692L58.6908 23.4289H58.7317C59.4585 22.2829 60.5615 21.7109 62.0417 21.7109C63.1988 21.7109 64.1648 22.1579 64.9376 23.0529C65.7125 23.9489 66.0989 25.1269 66.0989 26.5879ZM63.8786 26.6659C63.8786 25.7319 63.6639 24.9619 63.2326 24.3559C62.7613 23.7239 62.1286 23.4079 61.3353 23.4079C60.7976 23.4079 60.309 23.5839 59.8725 23.9309C59.435 24.2809 59.1488 24.7379 59.0149 25.3039C58.9474 25.5679 58.9137 25.7839 58.9137 25.9539V27.5539C58.9137 28.2519 59.1324 28.8409 59.5699 29.3219C60.0075 29.8029 60.5758 30.0429 61.275 30.0429C62.0959 30.0429 62.7347 29.7329 63.1917 29.1149C63.6496 28.4959 63.8786 27.6799 63.8786 26.6659Z"
            fill="currentColor" />
        <path
            d="M77.3812 26.5879C77.3812 28.2199 76.9304 29.5099 76.0278 30.4569C75.2212 31.2999 74.2184 31.7209 73.0214 31.7209C71.7293 31.7209 70.8011 31.2669 70.2369 30.3589H70.196V35.4139H68.0166V25.0669C68.0166 24.0409 67.989 22.9879 67.9359 21.9079H69.8525L69.9742 23.4289H70.015C70.7408 22.2829 71.8438 21.7109 73.325 21.7109C74.4811 21.7109 75.4471 22.1579 76.222 23.0529C76.9938 23.9489 77.3812 25.1269 77.3812 26.5879ZM75.1609 26.6659C75.1609 25.7319 74.9452 24.9619 74.5139 24.3559C74.0426 23.7239 73.4119 23.4079 72.6176 23.4079C72.0789 23.4079 71.5913 23.5839 71.1538 23.9309C70.7163 24.2809 70.4311 24.7379 70.2972 25.3039C70.2307 25.5679 70.196 25.7839 70.196 25.9539V27.5539C70.196 28.2519 70.4147 28.8409 70.8502 29.3219C71.2877 29.8019 71.8561 30.0429 72.5573 30.0429C73.3782 30.0429 74.0171 29.7329 74.474 29.1149C74.9319 28.4959 75.1609 27.6799 75.1609 26.6659Z"
            fill="currentColor" />
        <path
            d="M89.9954 27.772C89.9954 28.904 89.5936 29.825 88.7871 30.536C87.9008 31.313 86.667 31.701 85.0816 31.701C83.6177 31.701 82.4442 31.425 81.5559 30.872L82.0609 29.095C83.0177 29.661 84.0675 29.945 85.2114 29.945C86.0322 29.945 86.6711 29.763 87.1301 29.401C87.587 29.039 87.815 28.553 87.815 27.947C87.815 27.407 87.6269 26.952 87.2497 26.583C86.8745 26.214 86.2479 25.871 85.3729 25.554C82.9911 24.685 81.8012 23.412 81.8012 21.738C81.8012 20.644 82.2183 19.747 83.0535 19.049C83.8856 18.35 84.9957 18.001 86.3839 18.001C87.6218 18.001 88.6501 18.212 89.471 18.633L88.9261 20.371C88.1595 19.963 87.2926 19.759 86.3225 19.759C85.5559 19.759 84.9568 19.944 84.5275 20.312C84.1646 20.641 83.9827 21.042 83.9827 21.517C83.9827 22.043 84.1902 22.478 84.6072 22.82C84.9701 23.136 85.6295 23.478 86.5863 23.847C87.7567 24.308 88.6164 24.847 89.1694 25.465C89.7204 26.081 89.9954 26.852 89.9954 27.772Z"
            fill="currentColor" />
        <path
            d="M97.201 23.5078H94.7988V28.1668C94.7988 29.3518 95.222 29.9438 96.0705 29.9438C96.4599 29.9438 96.7829 29.9108 97.0385 29.8448L97.0988 31.4638C96.6695 31.6208 96.1042 31.6998 95.404 31.6998C94.5433 31.6998 93.8706 31.4428 93.3851 30.9298C92.9016 30.4158 92.6583 29.5538 92.6583 28.3428V23.5058H91.2272V21.9058H92.6583V20.1488L94.7988 19.5168V21.9058H97.201V23.5078Z"
            fill="currentColor" />
        <path
            d="M108.04 26.6269C108.04 28.1019 107.608 29.3129 106.748 30.2599C105.845 31.2349 104.647 31.7209 103.153 31.7209C101.714 31.7209 100.568 31.2539 99.7136 30.3199C98.859 29.3859 98.4318 28.2069 98.4318 26.7859C98.4318 25.2989 98.8713 24.0809 99.7535 23.1339C100.634 22.1859 101.821 21.7119 103.315 21.7119C104.754 21.7119 105.912 22.1789 106.786 23.1139C107.623 24.0209 108.04 25.1919 108.04 26.6269ZM105.778 26.6959C105.778 25.8109 105.585 25.0519 105.194 24.4189C104.737 23.6529 104.084 23.2709 103.237 23.2709C102.361 23.2709 101.696 23.6539 101.239 24.4189C100.847 25.0529 100.654 25.8239 100.654 26.7359C100.654 27.6209 100.847 28.3799 101.239 29.0119C101.71 29.7779 102.368 30.1599 103.218 30.1599C104.05 30.1599 104.703 29.7699 105.174 28.9919C105.576 28.3469 105.778 27.5799 105.778 26.6959Z"
            fill="currentColor" />
        <path
            d="M115.124 23.7829C114.908 23.7439 114.678 23.7239 114.437 23.7239C113.67 23.7239 113.077 24.0069 112.66 24.5739C112.297 25.0739 112.115 25.7059 112.115 26.4689V31.5039H109.937L109.957 24.9299C109.957 23.8239 109.93 22.8169 109.876 21.9089H111.774L111.854 23.7449H111.914C112.144 23.1139 112.507 22.6059 113.004 22.2249C113.489 21.8819 114.014 21.7109 114.579 21.7109C114.78 21.7109 114.962 21.7249 115.124 21.7499V23.7829Z"
            fill="currentColor" />
        <path
            d="M124.871 26.2519C124.871 26.6339 124.845 26.9559 124.791 27.2189H118.253C118.278 28.1669 118.594 28.8919 119.201 29.3919C119.752 29.8389 120.465 30.0629 121.34 30.0629C122.308 30.0629 123.191 29.9119 123.985 29.6089L124.327 31.0889C123.399 31.4849 122.303 31.6819 121.038 31.6819C119.517 31.6819 118.323 31.2439 117.454 30.3689C116.588 29.4939 116.153 28.3189 116.153 26.8449C116.153 25.3979 116.557 24.1929 117.365 23.2319C118.212 22.2059 119.356 21.6929 120.795 21.6929C122.209 21.6929 123.279 22.2059 124.006 23.2319C124.581 24.0469 124.871 25.0549 124.871 26.2519ZM122.792 25.6989C122.807 25.0669 122.665 24.5209 122.369 24.0599C121.992 23.4669 121.412 23.1709 120.632 23.1709C119.92 23.1709 119.34 23.4599 118.898 24.0399C118.535 24.5009 118.319 25.0539 118.253 25.6979H122.792V25.6989Z"
            fill="currentColor" />
        <path
            d="M45.5469 9.71777H46.4126C47.208 9.71777 47.6826 10.0825 47.6826 10.6978C47.6826 11.3042 47.1816 11.7173 46.439 11.7173C45.6655 11.7173 45.1382 11.3438 45.0898 10.7505H44C44.0571 11.9019 45.0239 12.6577 46.4346 12.6577C47.8188 12.6577 48.8472 11.8491 48.8472 10.7637C48.8472 9.91113 48.3154 9.30469 47.4629 9.20361V9.16846C48.166 9.01025 48.6494 8.42139 48.6494 7.70947C48.6494 6.70312 47.7529 6 46.4565 6C45.0942 6 44.2109 6.7251 44.1538 7.88086H45.2129C45.2612 7.2832 45.7227 6.91406 46.4258 6.91406C47.1201 6.91406 47.5508 7.26562 47.5508 7.83691C47.5508 8.4082 47.0806 8.80371 46.3906 8.80371H45.5469V9.71777Z"
            fill="currentColor" />
        <path
            d="M51.5452 11.748C51.0706 11.748 50.7542 11.5063 50.7542 11.124C50.7542 10.7549 51.0574 10.5176 51.5848 10.4824L52.6614 10.4165V10.7725C52.6614 11.335 52.1649 11.748 51.5452 11.748ZM51.2156 12.5742C51.8133 12.5742 52.3978 12.2622 52.6658 11.7568H52.6878V12.4995H53.7425V9.2915C53.7425 8.35547 52.991 7.74463 51.8353 7.74463C50.6487 7.74463 49.9061 8.36865 49.8577 9.23877H50.8729C50.9432 8.85205 51.2728 8.60156 51.7913 8.60156C52.3319 8.60156 52.6614 8.88281 52.6614 9.37061V9.70459L51.431 9.7749C50.2972 9.84521 49.66 10.3418 49.66 11.168C49.66 12.0073 50.3148 12.5742 51.2156 12.5742Z"
            fill="currentColor" />
        <path d="M58.0402 8.68506V7.84131H54.8805V12.4995H55.9704V8.68506H58.0402Z"
            fill="currentColor" />
        <path
            d="M61.5512 7.76221C60.8745 7.76221 60.3471 8.10498 60.0835 8.64551H60.0615V7.84131H58.9936V14.0332H60.0879V11.7261H60.1098C60.3647 12.249 60.8921 12.5742 61.5688 12.5742C62.7378 12.5742 63.4848 11.6558 63.4848 10.1704C63.4848 8.68066 62.7334 7.76221 61.5512 7.76221ZM61.2172 11.6777C60.5361 11.6777 60.0835 11.0845 60.0791 10.1704C60.0835 9.26514 60.5361 8.66309 61.2172 8.66309C61.9248 8.66309 62.3642 9.25195 62.3642 10.1704C62.3642 11.0933 61.9248 11.6777 61.2172 11.6777Z"
            fill="currentColor" />
        <path
            d="M64.8601 14.231C65.9236 14.231 66.4378 13.8398 66.8377 12.6841L68.5208 7.84131H67.3694L66.2708 11.5679H66.2532L65.1546 7.84131H63.9593L65.616 12.5039C65.6204 12.5171 65.5545 12.75 65.5545 12.7632C65.4314 13.1938 65.1985 13.3652 64.7459 13.3652C64.68 13.3652 64.4866 13.3608 64.4295 13.3477V14.2134C64.4866 14.2266 64.7986 14.231 64.8601 14.231Z"
            fill="currentColor" />
        <path
            d="M71.0343 12.5918C72.234 12.5918 72.9986 12.0117 72.9986 11.1108C72.9986 10.5879 72.691 10.2056 72.1065 10.0649V10.0298C72.5548 9.91113 72.836 9.52002 72.836 9.0498C72.836 8.25 72.1944 7.74463 71.0211 7.74463C69.9312 7.74463 69.2193 8.28516 69.1271 9.16406H70.1642C70.2257 8.80371 70.5421 8.59277 71.0211 8.59277C71.5265 8.59277 71.7682 8.82568 71.7682 9.15967C71.7682 9.5376 71.5089 9.72217 71.0123 9.72217H70.3707V10.478H71.0343C71.6187 10.478 71.9132 10.6714 71.9132 11.0933C71.9132 11.4712 71.5968 11.7305 71.0343 11.7305C70.5245 11.7305 70.1905 11.5151 70.0938 11.1152H69.0304C69.1183 12.0337 69.8873 12.5918 71.0343 12.5918Z"
            fill="currentColor" />
        <path
            d="M75.0595 12.4995L77.0854 9.36621H77.1205V12.4995H78.1928V7.84131H77.1205L75.0946 10.9526H75.0595V7.84131H73.9872V12.4995H75.0595Z"
            fill="currentColor" />
        <path d="M83.0002 7.84131H79.0495V8.68506H80.4822V12.4995H81.5676V8.68506H83.0002V7.84131Z"
            fill="currentColor" />
        <path
            d="M85.7818 8.59277C86.4102 8.59277 86.8321 9.0542 86.8541 9.71338H84.6788C84.7227 9.06299 85.1666 8.59277 85.7818 8.59277ZM86.8585 11.1064C86.7398 11.4932 86.3531 11.748 85.8433 11.748C85.127 11.748 84.67 11.2471 84.67 10.5V10.4341H87.9263V10.0781C87.9263 8.66309 87.1002 7.74463 85.7774 7.74463C84.4327 7.74463 83.5801 8.71582 83.5801 10.188C83.5801 11.6733 84.4239 12.5918 85.8213 12.5918C86.9244 12.5918 87.7418 11.9854 87.8824 11.1064H86.8585Z"
            fill="currentColor" />
        <path
            d="M92.8259 8.58398C93.2697 8.58398 93.5158 8.79053 93.5158 9.15527C93.5158 9.54199 93.2521 9.74414 92.7424 9.74414H91.9426V8.58398H92.8259ZM92.8083 10.4385C93.3972 10.4385 93.7004 10.6626 93.7004 11.0977C93.7004 11.5239 93.4147 11.7568 92.8962 11.7568H91.9426V10.4385H92.8083ZM90.8703 12.4995H93.1159C94.1486 12.4995 94.7902 11.9766 94.7902 11.1548C94.7902 10.5703 94.3771 10.1396 93.7663 10.0605V10.0254C94.2277 9.94629 94.5837 9.51123 94.5837 9.02344C94.5837 8.28516 94.0212 7.84131 93.0808 7.84131H90.8703V12.4995Z"
            fill="currentColor" />
    </symbol>
    <symbol id="icon-visa" viewBox="0 0 32 21" fill="none" xmlns="http://www.w3.org/2000/svg">
        <path
            d="M15.8442 5.85828L13.7071 16.1758H11.1208L13.2611 5.85828H15.8442ZM26.7239 12.52L28.0843 8.64501L28.8685 12.52H26.7239ZM29.6079 16.1758H32L29.913 5.85828H27.7055C27.7023 5.85828 27.6981 5.85828 27.6949 5.85828C27.2051 5.85828 26.7847 6.1678 26.6076 6.60728L26.6044 6.61499L22.7261 16.1758H25.4404L25.9803 14.6337H29.2974L29.6079 16.1758ZM22.8594 12.8075C22.8701 10.0835 19.2115 9.93373 19.2371 8.7166C19.2457 8.34651 19.586 7.95218 20.3329 7.85195C20.4716 7.83763 20.6316 7.82882 20.7938 7.82882C21.5524 7.82882 22.2715 8.00726 22.9117 8.32668L22.8829 8.31347L23.3364 6.12484C22.6183 5.83735 21.7871 5.66993 20.9186 5.66663H20.9176C18.3612 5.66663 16.5634 7.071 16.5473 9.07899C16.5313 10.5638 17.8309 11.391 18.8114 11.8866C19.8197 12.3922 20.1579 12.7172 20.1526 13.1677C20.1462 13.8616 19.3502 14.1656 18.6055 14.1777C18.5714 14.1788 18.5297 14.1788 18.4892 14.1788C17.5599 14.1788 16.685 13.9376 15.921 13.5113L15.9499 13.5256L15.4815 15.7859C16.3201 16.1328 17.2921 16.3333 18.3099 16.3333C18.326 16.3333 18.342 16.3333 18.358 16.3333H18.3558C21.0723 16.3333 22.8488 14.9487 22.8584 12.8042L22.8594 12.8075ZM12.1494 5.85828L7.96052 16.1758H5.22699L3.16564 7.94007C3.12617 7.53913 2.88824 7.20428 2.55748 7.03686L2.55108 7.03355C1.81702 6.66126 0.963457 6.35835 0.0704189 6.1678L0 6.15568L0.0618833 5.85718H4.46199C5.06162 5.85718 5.55988 6.30989 5.65271 6.90138L5.65377 6.90799L6.74313 12.8791L9.43398 5.85608L12.1494 5.85828Z"
            fill="currentColor" />
    </symbol>
    <symbol id="icon-mastercard" viewBox="0 0 32 21" fill="none" xmlns="http://www.w3.org/2000/svg">
        <path
            d="M16.1187 5.34098C16.9127 5.95451 17.5546 6.7378 17.9956 7.63158C18.4367 8.52536 18.6655 9.50619 18.6646 10.4998C18.6652 11.4932 18.4363 12.4736 17.9952 13.3671C17.5542 14.2605 16.9125 15.0435 16.1187 15.6568C15.3248 15.0434 14.6831 14.2602 14.242 13.3666C13.8009 12.473 13.5721 11.4924 13.5729 10.4989C13.5721 9.50539 13.8009 8.52475 14.242 7.63115C14.6831 6.73755 15.3248 5.95441 16.1187 5.34098ZM15.2655 4.77914C14.425 5.48537 13.7503 6.36283 13.2881 7.35088C12.8259 8.33892 12.5871 9.41399 12.5883 10.5018C12.5871 11.5891 12.8257 12.6637 13.2876 13.6514C13.7495 14.6391 14.4237 15.5163 15.2636 16.2225C14.2489 16.7832 13.1029 17.0727 11.9394 17.0622C10.7759 17.0518 9.63539 16.7418 8.63131 16.163C7.62724 15.5842 6.79454 14.7568 6.216 13.763C5.63745 12.7692 5.3332 11.6437 5.3335 10.4983C5.33379 9.35295 5.63862 8.22759 6.21768 7.23412C6.79673 6.24064 7.62986 5.41365 8.63423 4.83536C9.6386 4.25707 10.7792 3.94761 11.9428 3.93774C13.1063 3.92788 14.2512 4.21796 15.2655 4.77914ZM16.9739 16.2225C17.8137 15.5163 18.4879 14.6391 18.9498 13.6514C19.4117 12.6637 19.6503 11.5891 19.6492 10.5018C19.6503 9.41399 19.4116 8.33892 18.9493 7.35088C18.4871 6.36283 17.8124 5.48537 16.9719 4.77914C17.9862 4.21796 19.1321 3.92788 20.2956 3.93774C21.4592 3.94761 22.5998 4.25707 23.6042 4.83536C24.6085 5.41365 25.4417 6.24064 26.0207 7.23412C26.5998 8.22759 26.9046 9.35295 26.9049 10.4983C26.9052 11.6437 26.601 12.7692 26.0224 13.763C25.4439 14.7568 24.6112 15.5842 23.6071 16.163C22.603 16.7418 21.4625 17.0518 20.299 17.0622C19.1355 17.0727 17.9895 16.7832 16.9748 16.2225H16.9739Z"
            fill="currentColor" />
    </symbol>
    <symbol id="icon-mir" viewBox="0 0 32 21" fill="none" xmlns="http://www.w3.org/2000/svg">
        <g clip-path="url(#clip0_129_1458)">
            <path
                d="M23.0861 9.40332V14.4376H25.8459V11.4543H28.9737C30.2892 11.445 31.4069 10.592 31.8301 9.40332H23.0861Z"
                fill="currentColor" />
            <path
                d="M22.7181 5.25452C22.8791 7.31017 24.8018 8.93697 27.1476 8.93697C27.1568 8.93697 31.9451 8.93697 31.9451 8.93697C31.9819 8.75052 32.0003 8.55474 32.0003 8.35431C32.0003 6.64826 30.6434 5.2685 28.9645 5.25452H22.7181Z"
                fill="currentColor" />
            <path
                d="M18.6333 8.8857C18.6655 8.82976 18.7161 8.79713 18.7805 8.79713C18.8725 8.79713 18.9415 8.87172 18.9461 8.96028V14.3907H21.7059V5.25452H18.9461C18.5965 5.2685 18.2009 5.52487 18.0537 5.84651L15.8597 10.6197C15.8551 10.6384 15.8459 10.657 15.8367 10.6757C15.8045 10.7223 15.7493 10.7549 15.6849 10.7549C15.5837 10.7549 15.5009 10.671 15.5009 10.5684V5.25452H12.7411V14.3907H15.5009C15.8459 14.3721 16.2322 14.1157 16.3794 13.7987L18.6333 8.89968C18.6287 8.89502 18.6333 8.89036 18.6333 8.8857Z"
                fill="currentColor" />
            <path
                d="M8.33003 9.04433L6.71554 14.3909H4.72848L3.11859 9.03967C3.10479 8.95576 3.03119 8.89051 2.9392 8.89051C2.838 8.89051 2.75981 8.97441 2.75981 9.0723V14.3862H0V5.25H2.36884H3.07259C3.57855 5.25 4.11212 5.65088 4.25931 6.14032L5.60242 10.5919C5.67141 10.8156 5.7772 10.811 5.8462 10.5919L7.18931 6.14032C7.3365 5.64621 7.87006 5.25 8.37602 5.25H9.07978H11.4486V14.3862H8.6888V9.0723C8.6888 9.0723 8.6888 9.0723 8.6888 9.06764C8.6888 8.96509 8.60601 8.88584 8.50941 8.88584C8.41742 8.89051 8.34383 8.95576 8.33003 9.04433Z"
                fill="currentColor" />
        </g>
        <defs>
            <clipPath id="clip0_129_1458">
                <rect width="32" height="21" fill="white" />
            </clipPath>
        </defs>
    </symbol>
    <symbol id="icon-footer-logo" viewBox="0 0 137 22" fill="none"
        xmlns="http://www.w3.org/2000/svg">
        <path
            d="M119.711 3.99801H124.151V8.12601L123.983 8.70201V12.254L124.151 13.31V21.638H119.711V3.99801ZM122.687 10.838C122.927 9.36601 123.383 8.09401 124.055 7.02201C124.727 5.95001 125.575 5.11801 126.599 4.52601C127.639 3.91801 128.791 3.61401 130.055 3.61401C131.399 3.61401 132.575 3.91801 133.583 4.52601C134.607 5.13401 135.407 5.98201 135.983 7.07001C136.559 8.14201 136.847 9.39801 136.847 10.838C136.847 12.278 136.559 13.542 135.983 14.63C135.407 15.702 134.607 16.542 133.583 17.15C132.575 17.758 131.399 18.062 130.055 18.062C128.775 18.062 127.623 17.766 126.599 17.174C125.591 16.566 124.751 15.726 124.079 14.654C123.407 13.566 122.943 12.294 122.687 10.838ZM132.335 10.838C132.335 10.102 132.183 9.45401 131.879 8.89401C131.575 8.31801 131.151 7.87001 130.607 7.55001C130.079 7.21401 129.471 7.04601 128.783 7.04601C128.079 7.04601 127.407 7.21401 126.767 7.55001C126.127 7.87001 125.567 8.31801 125.087 8.89401C124.623 9.45401 124.263 10.102 124.007 10.838C124.263 11.574 124.623 12.23 125.087 12.806C125.567 13.366 126.127 13.814 126.767 14.15C127.407 14.47 128.079 14.63 128.783 14.63C129.471 14.63 130.079 14.47 130.607 14.15C131.151 13.814 131.575 13.366 131.879 12.806C132.183 12.23 132.335 11.574 132.335 10.838Z"
            fill="white" />
        <path
            d="M100.328 3.99801H104.768V8.12601L104.6 8.70201V12.254L104.768 13.31V21.638H100.328V3.99801ZM103.304 10.838C103.544 9.36601 104 8.09401 104.672 7.02201C105.344 5.95001 106.192 5.11801 107.216 4.52601C108.256 3.91801 109.408 3.61401 110.672 3.61401C112.016 3.61401 113.192 3.91801 114.2 4.52601C115.224 5.13401 116.024 5.98201 116.6 7.07001C117.176 8.14201 117.464 9.39801 117.464 10.838C117.464 12.278 117.176 13.542 116.6 14.63C116.024 15.702 115.224 16.542 114.2 17.15C113.192 17.758 112.016 18.062 110.672 18.062C109.392 18.062 108.24 17.766 107.216 17.174C106.208 16.566 105.368 15.726 104.696 14.654C104.024 13.566 103.56 12.294 103.304 10.838ZM112.952 10.838C112.952 10.102 112.8 9.45401 112.496 8.89401C112.192 8.31801 111.768 7.87001 111.224 7.55001C110.696 7.21401 110.088 7.04601 109.4 7.04601C108.696 7.04601 108.024 7.21401 107.384 7.55001C106.744 7.87001 106.184 8.31801 105.704 8.89401C105.24 9.45401 104.88 10.102 104.624 10.838C104.88 11.574 105.24 12.23 105.704 12.806C106.184 13.366 106.744 13.814 107.384 14.15C108.024 14.47 108.696 14.63 109.4 14.63C110.088 14.63 110.696 14.47 111.224 14.15C111.768 13.814 112.192 13.366 112.496 12.806C112.8 12.23 112.952 11.574 112.952 10.838Z"
            fill="white" />
        <path
            d="M93.1659 17.678L92.5659 12.71L93.2139 10.838L92.5659 8.99001L93.1659 3.99801H97.7979L96.9579 10.838L97.7979 17.678H93.1659ZM94.2699 10.838C94.0299 12.294 93.5739 13.566 92.9019 14.654C92.2299 15.726 91.3819 16.566 90.3579 17.174C89.3339 17.766 88.1819 18.062 86.9019 18.062C85.5579 18.062 84.3739 17.758 83.3499 17.15C82.3419 16.542 81.5499 15.702 80.9739 14.63C80.3979 13.542 80.1099 12.278 80.1099 10.838C80.1099 9.39801 80.3979 8.14201 80.9739 7.07001C81.5499 5.98201 82.3419 5.13401 83.3499 4.52601C84.3739 3.91801 85.5579 3.61401 86.9019 3.61401C88.1819 3.61401 89.3339 3.91801 90.3579 4.52601C91.3819 5.11801 92.2299 5.95001 92.9019 7.02201C93.5899 8.09401 94.0459 9.36601 94.2699 10.838ZM84.6219 10.838C84.6219 11.574 84.7739 12.23 85.0779 12.806C85.3819 13.366 85.7979 13.814 86.3259 14.15C86.8699 14.47 87.4939 14.63 88.1979 14.63C88.9019 14.63 89.5659 14.47 90.1899 14.15C90.8299 13.814 91.3899 13.366 91.8699 12.806C92.3499 12.23 92.7099 11.574 92.9499 10.838C92.7099 10.102 92.3499 9.45401 91.8699 8.89401C91.3899 8.31801 90.8299 7.87001 90.1899 7.55001C89.5659 7.21401 88.9019 7.04601 88.1979 7.04601C87.4939 7.04601 86.8699 7.21401 86.3259 7.55001C85.7979 7.87001 85.3819 8.31801 85.0779 8.89401C84.7739 9.45401 84.6219 10.102 84.6219 10.838Z"
            fill="white" />
        <path
            d="M69.8582 18.062C68.1302 18.062 66.6182 17.758 65.3222 17.15C64.0262 16.542 63.0182 15.694 62.2982 14.606C61.5782 13.518 61.2182 12.262 61.2182 10.838C61.2182 9.39801 61.5782 8.14201 62.2982 7.07001C63.0182 5.98201 64.0262 5.13401 65.3222 4.52601C66.6342 3.91801 68.1462 3.61401 69.8582 3.61401C71.5862 3.61401 73.0982 3.91801 74.3942 4.52601C75.7062 5.13401 76.7222 5.98201 77.4422 7.07001C78.1622 8.14201 78.5222 9.39801 78.5222 10.838C78.5222 12.278 78.1622 13.542 77.4422 14.63C76.7222 15.702 75.7062 16.542 74.3942 17.15C73.0982 17.758 71.5862 18.062 69.8582 18.062ZM69.8582 14.702C70.7382 14.702 71.4822 14.55 72.0902 14.246C72.7142 13.926 73.1862 13.478 73.5062 12.902C73.8422 12.326 74.0102 11.638 74.0102 10.838C74.0102 10.038 73.8422 9.35001 73.5062 8.77401C73.1862 8.19801 72.7142 7.75801 72.0902 7.45401C71.4822 7.13401 70.7382 6.97401 69.8582 6.97401C69.0102 6.97401 68.2742 7.13401 67.6502 7.45401C67.0262 7.75801 66.5462 8.19801 66.2102 8.77401C65.8742 9.35001 65.7062 10.038 65.7062 10.838C65.7062 11.638 65.8742 12.326 66.2102 12.902C66.5462 13.478 67.0262 13.926 67.6502 14.246C68.2742 14.55 69.0102 14.702 69.8582 14.702Z"
            fill="white" />
        <path
            d="M46.8358 7.3101V5.3661L49.6678 4.3341L51.5878 0.350098H54.1318V3.9981H60.0358V7.3101H54.1318V11.8221C54.1318 12.8461 54.3398 13.5661 54.7558 13.9821C55.1718 14.3821 55.9158 14.5821 56.9878 14.5821C57.6758 14.5821 58.2758 14.5261 58.7878 14.4141C59.3158 14.2861 59.8118 14.1181 60.2758 13.9101V17.2941C59.7958 17.4861 59.1638 17.6621 58.3798 17.8221C57.6118 17.9821 56.8118 18.0621 55.9798 18.0621C54.5238 18.0621 53.3238 17.8301 52.3798 17.3661C51.4518 16.9021 50.7638 16.2541 50.3158 15.4221C49.8838 14.5741 49.6678 13.5821 49.6678 12.4461V7.3101H46.8358Z"
            fill="white" />
        <path
            d="M46.1263 13.286C46.1263 14.31 45.8223 15.182 45.2143 15.902C44.6223 16.606 43.7503 17.142 42.5983 17.51C41.4463 17.878 40.0463 18.062 38.3983 18.062C36.7183 18.062 35.2463 17.854 33.9823 17.438C32.7183 17.022 31.7343 16.438 31.0303 15.686C30.3263 14.934 29.9503 14.062 29.9023 13.07H34.4383C34.5343 13.47 34.7583 13.822 35.1103 14.126C35.4783 14.43 35.9503 14.662 36.5263 14.822C37.1023 14.966 37.7823 15.038 38.5663 15.038C39.6223 15.038 40.4223 14.926 40.9663 14.702C41.5103 14.478 41.7823 14.142 41.7823 13.694C41.7823 13.358 41.5823 13.102 41.1823 12.926C40.7983 12.75 40.1023 12.622 39.0943 12.542L36.5983 12.35C35.0303 12.238 33.7823 11.99 32.8543 11.606C31.9263 11.222 31.2623 10.734 30.8623 10.142C30.4783 9.55002 30.2863 8.88601 30.2863 8.15001C30.2863 7.14201 30.5983 6.30201 31.2223 5.63001C31.8623 4.95801 32.7423 4.45401 33.8623 4.11802C34.9823 3.78201 36.2943 3.61401 37.7983 3.61401C39.3023 3.61401 40.6383 3.81401 41.8063 4.21401C42.9903 4.61401 43.9343 5.16601 44.6383 5.87001C45.3583 6.57401 45.7663 7.39801 45.8623 8.34201H41.3263C41.2623 8.02201 41.0863 7.72601 40.7983 7.45401C40.5263 7.18201 40.1263 6.96601 39.5983 6.80602C39.0863 6.63001 38.4143 6.54201 37.5823 6.54201C36.6383 6.54201 35.9183 6.64601 35.4223 6.85401C34.9263 7.06201 34.6783 7.36601 34.6783 7.76601C34.6783 8.07001 34.8303 8.31001 35.1343 8.48601C35.4383 8.66201 36.0143 8.79001 36.8623 8.87001L40.1023 9.11001C41.6383 9.23801 42.8383 9.48602 43.7023 9.85402C44.5823 10.206 45.2063 10.67 45.5743 11.246C45.9423 11.822 46.1263 12.502 46.1263 13.286Z"
            fill="white" />
        <path
            d="M21.1054 18.062C19.4734 18.062 18.0094 17.758 16.7134 17.15C15.4334 16.542 14.4254 15.694 13.6894 14.606C12.9534 13.518 12.5854 12.246 12.5854 10.79C12.5854 9.36601 12.9374 8.11801 13.6414 7.04601C14.3454 5.97401 15.3134 5.13401 16.5454 4.52601C17.7934 3.91801 19.2014 3.61401 20.7694 3.61401C22.3694 3.61401 23.7454 3.96601 24.8974 4.67001C26.0494 5.37401 26.9374 6.36601 27.5614 7.64601C28.1854 8.92601 28.4974 10.43 28.4974 12.158H16.1614V9.35001H26.0494L24.4414 10.358C24.3934 9.60601 24.2094 8.97401 23.8894 8.46202C23.5854 7.93401 23.1774 7.53401 22.6654 7.26201C22.1534 6.97401 21.5454 6.83001 20.8414 6.83001C20.0734 6.83001 19.4094 6.98201 18.8494 7.28601C18.2894 7.59001 17.8494 8.01401 17.5294 8.55801C17.2254 9.10201 17.0734 9.73401 17.0734 10.454C17.0734 11.366 17.2734 12.142 17.6734 12.782C18.0894 13.422 18.6814 13.91 19.4494 14.246C20.2334 14.582 21.1854 14.75 22.3054 14.75C23.3294 14.75 24.3534 14.614 25.3774 14.342C26.4014 14.054 27.3214 13.654 28.1374 13.142V16.046C27.2094 16.686 26.1454 17.182 24.9454 17.534C23.7614 17.886 22.4814 18.062 21.1054 18.062Z"
            fill="white" />
        <path
            d="M0 3.99801H4.512L5.328 8.91801V17.678H0.864V8.55801L0 3.99801ZM11.856 3.80602V7.64601C11.424 7.55001 10.992 7.47801 10.56 7.43001C10.144 7.38201 9.76 7.35802 9.408 7.35802C8.64 7.35802 7.944 7.51801 7.32 7.83801C6.712 8.14201 6.224 8.63001 5.856 9.30201C5.504 9.97401 5.328 10.846 5.328 11.918L4.44 10.814C4.552 9.83801 4.736 8.91801 4.992 8.05401C5.248 7.19001 5.6 6.43001 6.048 5.77401C6.496 5.10201 7.048 4.57401 7.704 4.19001C8.376 3.80601 9.184 3.61401 10.128 3.61401C10.4 3.61401 10.688 3.63001 10.992 3.66201C11.296 3.69401 11.584 3.74201 11.856 3.80602Z"
            fill="white" />
    </symbol>
</svg>